<?xml version="1.0" encoding="UTF-8"?>
<svg id="Layer_1" data-name="Layer 1" xmlns="http://www.w3.org/2000/svg" viewBox="0 0 75 75">
  <defs>
    <style>
      .cls-1 {
        stroke-width: 0px;
      }
    </style>
  </defs>
  <path class="cls-1" d="M0,19c.02-.12-.08-.31.16-.33.62.03,1.19.31,1.8.41.63.1,1.24.31,1.87.44.59.12,1.22.15,1.79.42.18.09.42.02.63.05.2.03.39.13.59.15.52.07,1.08.03,1.56.19.52.18,1.07.01,1.55.2.54.21,1.09-.04,1.59.12.83.25,1.65.13,2.48.13.7,0,1.36.25,2.07.19.68-.06,1.37,0,2.05-.02.34,0,.68.08,1.01-.14.13-.09.48.16.63.08.22-.12.41-.1.62-.1,2.9,0,5.8,0,8.69,0,.51,0,.97.24,1.49.18.49-.05,1.01-.12,1.47.01.64.18,1.28.08,1.91.15.36.04.7.2,1.08.16.36-.03.72.01,1.09.13.36.12.79-.04,1.15.19.65-.11,1.26.21,1.9.17.19,0,.39.11.59.15.2.05.4-.02.62.1.34.19.76,0,1.14.21.28.15.65.13.99.18.36.06.76.03,1.07.19.31.16.69.02.94.31,1.31.02,2.47.71,3.76.82.56.39,1.19.35,1.75.32.59-.26.97-.62,1.13-1.19.07-.24.12-.49.18-.74.62.22,1.21.43,1.8.63.55.19,1.1.38,1.64.59,1.41.55,2.77,1.24,4.2,1.74.31.11.58.31.88.46,1.37.66,2.77,1.26,4.09,1.99.96.53,1.94,1.01,2.88,1.58.81.48,1.64.93,2.42,1.47,1.02.69,1.91,1.49,2.65,2.48.36.48.71.95.98,1.48.28.54.48,1.09.43,1.71-.02.27.01.55,0,.82-.02.28-.08.56-.15,1,.27.41.61.95.96,1.48.33.49.47,1.06.67,1.61.25.68.19,1.38.13,2.06-.05.57-.24,1.13-.62,1.62-.51.68-1.05,1.22-1.75,1.54q-.28.13-.69.12v-.88c-.13-.47-.56-.66-.9-.84-.94-.5-1.8-1.13-2.79-1.56-.6-.26-1.21-.53-1.82-.75-1.04-.39-2.09-.77-3.17-1.07-.74-.2-1.46-.43-2.21-.61-.45-.11-.9-.2-1.34-.33-.44-.14-.91-.13-1.35-.3-.32-.13-.71-.06-1.08-.16-.52-.15-1.11-.08-1.64-.2-.69-.16-1.4-.02-2.06-.18-.78-.19-1.55-.08-2.32-.12-.3-.01-.61.15-.92.14-.3,0-.56.11-.84.17-.3.07-.64.06-.91.18-1.21.54-2.44,1.05-2.99,2.42-.18.45-.54.59-1.01.71-1.83.48-3.38,1.33-4.22,3.18-.48,1.05-.39,2.83.38,3.78.09.12.16.26.25.41.17-.49.39-.94.91-1.1.34-.11.7-.2,1.05-.22.65-.04,1.32-.05,1.97,0,.56.05,1.12.17,1.67.32,1.05.29,2.08.64,3.07,1.1,1.34.63,2.46,1.53,3.41,2.63.58.68,1.34,2.09,1.07,3.1-.7-.52-1.36-1.13-2.13-1.52-.66-.34-1.35-.7-2.15-.75-.32-.02-.66-.13-1-.15-.31-.01-.61-.11-.92-.15-.45-.06-.89.07-1.33.15-.41.08-.84-.09-1.25.15-.16.1-.43,0-.65.02-.17.02-.33.12-.51.15-.39.07-.84.01-1.15.19-.37.22-.82-.04-1.11.3-.77-.05-1.48.28-2.24.36-.5.05-1.04,0-1.48.17-.52.21-1.03-.01-1.5.14-.9.29-1.82.11-2.72.14-.93.04-1.86.01-2.79,0-.34,0-.63-.23-1-.17-.33.05-.69.07-1-.15-1.01.06-1.96-.29-2.9-.53-1.02-.26-2.04-.58-3-1.06-.34-.17-.73-.23-1.05-.42-1.13-.66-2.3-1.26-3.31-2.12-.34-.29-.69-.58-1.02-.88-.16-.15-.35-.27-.61-.47.2-.05.31-.12.37-.09.43.21.88.15,1.33.16.44,0,.87,0,1.31,0,.86,0,2.22-.4,2.99-.89.03-.02.02-.1.02-.15-.03-.04-.06-.1-.1-.11-.36-.08-.73.1-1.1-.12-.31-.19-.72.07-1.07-.19-.14-.1-.43,0-.64-.02-.17-.02-.33-.12-.51-.15-1.06-.18-2.11-.42-3.14-.73-.78-.23-1.56-.46-2.32-.75-.38-.14-.77-.26-1.14-.42-1.21-.52-2.38-1.14-3.51-1.83-1.01-.61-1.91-1.34-2.85-2.04-.53-.39-.96-.85-1.42-1.29-1.06-1-1.89-2.19-2.7-3.39-.17-.25-.32-.53-.49-.83.25-.04.46-.01.73.07.41.13.84.23,1.27.31.41.07.83.14,1.21.26.77.24,1.57.26,2.35.43.68.15,1.41.05,2.12.03.33,0,.66-.09,1.16-.16-3.97-2.64-7.05-5.89-9.45-9.84.15.06.3.14.45.17,1.04.19,2.01.67,3.09.66.42.27.9.07,1.32.18,1.23.3,2.47.12,3.71.14.73.01,1.47-.13,2.3-.22-.15-.11-.22-.21-.31-.23-1.5-.27-2.81-1-4.15-1.66-1.06-.52-1.96-1.23-2.89-1.93-.83-.62-1.52-1.38-2.23-2.11-.63-.63-1.11-1.39-1.67-2.08-.49-.61-.85-1.29-1.29-1.93Z"/>
</svg>