<?xml version="1.0" encoding="UTF-8"?>
<svg id="Layer_1" data-name="Layer 1" xmlns="http://www.w3.org/2000/svg" viewBox="0 0 75 75">
  <defs>
    <style>
      .cls-1 {
        stroke-width: 0px;
      }
    </style>
  </defs>
  <path class="cls-1" d="M21.71,46.5c-1.85.6-3.54,1.37-5.32,1.68-2.15.38-4.37.39-6.56.52-1.01.06-1.02.02-1.02,1.04,0,5.25-.01,10.49.01,15.74,0,.68-.18.89-.88.88-2.4-.04-4.81-.03-7.21,0-.54,0-.74-.15-.73-.71.02-8.49.02-16.98,0-25.47,0-.6.2-.75.77-.75,3.49.02,6.99.03,10.48-.02,1.18-.02,2.37-.15,3.53-.36,2.99-.54,4.88-2.39,5.8-5.22,1.08-3.32,1.09-6.66-.09-9.95-1.22-3.4-3.66-5.41-7.29-5.62-4.07-.23-8.16-.23-12.24-.32-.96-.02-.96,0-.96-.99,0-2.5.02-5-.01-7.5,0-.63.21-.8.81-.8,3.69.03,7.39-.07,11.08.07,5.38.2,10.15,1.87,13.67,6.2,2.34,2.87,3.65,6.19,4.23,9.82.55,3.46.13,6.87-.23,10.32-.54,5.23.77,10.07,4.01,14.28,2.84,3.69,6.53,6.08,11.14,6.93,1.06.2,2.16.22,3.25.23.63,0,.87.14.86.82-.04,2.75-.03,5.49,0,8.24,0,.63-.21.8-.81.79-8.58-.13-15.54-3.59-21-10.14-2.26-2.71-3.9-5.77-5.05-9.1-.09-.25-.2-.5-.25-.62Z"/>
  <path class="cls-1" d="M65.93,39.46c-.06-1.11-.11-2.14-.18-3.17-.55-8.08-6.36-16.02-15.54-17.57-.12-.02-.25-.04-.37-.04-.7.04-.92-.28-.91-.98.04-2.6.02-5.2.02-7.79,0-1.13.05-1.18,1.17-1.05,3.75.45,7.32,1.51,10.57,3.46,7.45,4.47,11.94,11.06,13.67,19.5.46,2.23.43,4.56.64,6.84.05.59-.12.83-.77.82-2.75-.03-5.5-.01-8.29-.01Z"/>
</svg>