<?xml version="1.0" encoding="UTF-8"?>
<svg id="Layer_1" data-name="Layer 1" xmlns="http://www.w3.org/2000/svg" viewBox="0 0 75 75">
  <defs>
    <style>
      .cls-1 {
        fill: #282828;
        stroke-width: 0px;
      }
    </style>
  </defs>
  <path class="cls-1" d="M0,63.16v-11.05c0-2.24.58-4.29,1.73-6.17,1.15-1.87,2.68-3.31,4.59-4.29,4.08-2.04,8.22-3.57,12.43-4.59,4.21-1.02,8.49-1.53,12.83-1.53,1.32,0,2.63.05,3.95.15s2.63.25,3.95.44c-.26,3.82.43,7.42,2.07,10.81s4.05,6.17,7.2,8.34v7.89H0ZM63.16,75l-5.92-5.92v-18.36c-2.89-.86-5.26-2.48-7.11-4.88s-2.76-5.18-2.76-8.34c0-3.82,1.35-7.07,4.05-9.77,2.7-2.7,5.95-4.05,9.77-4.05s7.07,1.35,9.77,4.05c2.7,2.7,4.05,5.95,4.05,9.77,0,2.96-.84,5.59-2.52,7.89-1.68,2.3-3.8,3.95-6.37,4.93l4.93,4.93-5.92,5.92,5.92,5.92-7.89,7.89ZM31.58,31.58c-4.34,0-8.06-1.55-11.15-4.64-3.09-3.09-4.64-6.81-4.64-11.15s1.55-8.06,4.64-11.15S27.24,0,31.58,0s8.06,1.55,11.15,4.64,4.64,6.81,4.64,11.15-1.55,8.06-4.64,11.15c-3.09,3.09-6.81,4.64-11.15,4.64ZM61.18,39.47c1.12,0,2.06-.38,2.81-1.13s1.13-1.69,1.13-2.81-.38-2.06-1.13-2.81-1.69-1.13-2.81-1.13-2.06.38-2.81,1.13-1.13,1.69-1.13,2.81.38,2.06,1.13,2.81,1.69,1.13,2.81,1.13Z"/>
</svg>