<?xml version="1.0" encoding="UTF-8"?>
<svg id="Layer_1" data-name="Layer 1" xmlns="http://www.w3.org/2000/svg" viewBox="0 0 400 100">
  <defs>
    <style>
      .cls-1 {
        fill: #2b2727;
      }

      .cls-1, .cls-2, .cls-3, .cls-4, .cls-5, .cls-6, .cls-7, .cls-8, .cls-9, .cls-10, .cls-11, .cls-12, .cls-13, .cls-14, .cls-15, .cls-16, .cls-17, .cls-18, .cls-19, .cls-20, .cls-21 {
        stroke-width: 0px;
      }

      .cls-2 {
        fill: #f16254;
      }

      .cls-3 {
        fill: #363131;
      }

      .cls-4 {
        fill: #ea2227;
      }

      .cls-5 {
        fill: #353030;
      }

      .cls-6 {
        fill: #3a3535;
      }

      .cls-7 {
        fill: #342f2f;
      }

      .cls-9 {
        fill: #312d2c;
      }

      .cls-10 {
        fill: #393433;
      }

      .cls-11 {
        fill: #312c2c;
      }

      .cls-12 {
        fill: #373232;
      }

      .cls-13 {
        fill: #302c2b;
      }

      .cls-14 {
        fill: #363130;
      }

      .cls-15 {
        fill: #332e2e;
      }

      .cls-16 {
        fill: #332f2e;
      }

      .cls-17 {
        fill: #2f2b2a;
      }

      .cls-18 {
        fill: #383332;
      }

      .cls-19 {
        fill: #403b3a;
      }

      .cls-20 {
        fill: #373231;
      }

      .cls-21 {
        fill: #0061a8;
      }
    </style>
  </defs>
  <path class="cls-2" d="M253.36,19.74v.12c-.18.01-.1.15-.12.24-.04-.03-.09-.06-.12-.09-.05-.05-.08-.1-.12-.15.02-.04.04-.11.06-.12.1-.01.2,0,.3,0Z"/>
  <g>
    <path class="cls-4" d="M257.09,18.13c.02-.09-.06-.23.12-.24.46.02.88.23,1.34.3.47.08.92.23,1.39.33.44.09.91.11,1.33.31.13.06.32.01.47.04.15.02.29.1.44.11.39.05.8.02,1.16.14.39.13.79.01,1.16.15.4.15.81-.03,1.18.09.61.19,1.23.1,1.84.1.52,0,1.01.19,1.53.14.5-.04,1.02,0,1.52-.01.25,0,.5.06.75-.1.1-.06.36.12.47.06.16-.09.31-.07.46-.07,2.15,0,4.31,0,6.46,0,.38,0,.72.18,1.11.13.36-.04.75-.09,1.09.01.48.14.95.06,1.42.11.27.03.52.15.8.12.27-.02.53,0,.81.1.27.09.59-.03.86.14.48-.08.93.15,1.41.13.14,0,.29.08.44.11.15.04.3-.02.46.08.25.14.57,0,.85.16.21.11.49.1.73.14.27.04.56.02.79.14.23.12.52.01.7.23.97.01,1.84.53,2.79.61.42.29.89.26,1.3.24.44-.19.72-.46.84-.89.05-.18.09-.37.13-.55.46.16.9.32,1.34.47.41.14.82.28,1.22.44,1.05.41,2.06.92,3.12,1.29.23.08.43.23.65.34,1.02.49,2.06.93,3.04,1.48.71.39,1.44.75,2.14,1.17.6.36,1.22.69,1.8,1.09.76.52,1.42,1.11,1.97,1.84.27.36.52.71.73,1.1.2.4.36.81.32,1.27-.02.2,0,.41,0,.61-.02.21-.06.41-.11.74.2.31.45.71.71,1.1.24.37.35.79.5,1.19.19.51.14,1.03.1,1.53-.04.42-.18.84-.46,1.21-.38.5-.78.9-1.3,1.14q-.21.1-.52.09v-.65c-.09-.35-.42-.49-.67-.62-.7-.37-1.34-.84-2.08-1.16-.45-.19-.9-.39-1.35-.56-.77-.29-1.55-.57-2.35-.8-.55-.15-1.09-.32-1.64-.45-.33-.08-.67-.15-.99-.25-.33-.1-.67-.09-1-.22-.24-.09-.53-.04-.8-.12-.39-.11-.82-.06-1.22-.15-.51-.12-1.04-.02-1.53-.14-.58-.14-1.15-.06-1.72-.09-.22-.01-.45.11-.68.1-.23,0-.42.08-.62.13-.22.05-.47.04-.68.13-.9.4-1.82.78-2.22,1.79-.13.33-.4.44-.75.53-1.36.36-2.51.99-3.14,2.37-.36.78-.29,2.1.28,2.81.07.09.12.19.18.31.12-.37.29-.7.67-.82.25-.08.52-.15.78-.17.49-.03.98-.04,1.46,0,.42.04.83.13,1.24.24.78.21,1.54.47,2.28.82,1,.47,1.83,1.14,2.53,1.96.43.5.99,1.55.79,2.3-.52-.38-1.01-.84-1.59-1.13-.49-.25-1.01-.52-1.6-.56-.24-.02-.49-.1-.74-.11-.23,0-.45-.08-.68-.11-.34-.04-.66.05-.99.11-.3.06-.62-.07-.93.12-.12.07-.32,0-.48.02-.13.02-.25.09-.38.11-.29.05-.62,0-.85.14-.27.16-.61-.03-.82.22-.57-.03-1.1.21-1.66.27-.37.04-.78,0-1.1.12-.39.15-.76,0-1.11.11-.67.22-1.35.08-2.02.11-.69.03-1.38,0-2.07,0-.25,0-.47-.17-.74-.13-.25.04-.51.05-.74-.11-.75.04-1.46-.21-2.16-.39-.76-.19-1.52-.43-2.23-.78-.25-.13-.54-.17-.78-.31-.84-.49-1.71-.93-2.46-1.57-.25-.22-.51-.43-.76-.66-.12-.11-.26-.2-.45-.35.15-.04.23-.09.28-.07.32.16.66.11.99.12.32,0,.65,0,.97,0,.64,0,1.65-.3,2.22-.66.02-.01.01-.07.02-.11-.03-.03-.05-.07-.08-.08-.27-.06-.54.08-.82-.09-.23-.14-.54.05-.8-.14-.1-.08-.32,0-.48-.02-.13-.02-.25-.09-.38-.11-.79-.14-1.57-.31-2.33-.54-.58-.17-1.16-.34-1.72-.55-.28-.11-.57-.2-.84-.32-.9-.39-1.77-.84-2.61-1.36-.75-.45-1.42-1-2.12-1.51-.39-.29-.71-.64-1.06-.96-.79-.74-1.4-1.63-2.01-2.52-.13-.19-.23-.39-.37-.62.19-.03.34-.01.54.05.3.1.62.17.94.23.3.06.62.11.9.19.57.18,1.17.19,1.75.32.5.11,1.05.03,1.58.02.25,0,.49-.06.86-.12-2.95-1.96-5.24-4.38-7.03-7.31.11.04.22.1.34.12.77.14,1.49.5,2.3.49.31.2.67.05.98.13.91.22,1.84.09,2.75.1.54,0,1.09-.1,1.71-.16-.11-.08-.17-.16-.23-.17-1.11-.2-2.09-.74-3.09-1.23-.79-.38-1.46-.91-2.15-1.43-.62-.46-1.13-1.02-1.66-1.56-.46-.47-.83-1.03-1.24-1.55-.36-.45-.63-.96-.96-1.43Z"/>
    <path class="cls-12" d="M353.17,51.28c-.63,1.79-1.17,3.57-1.8,5.31h-.63c-.5-1.44-1.02-2.9-1.54-4.41-.51,1.52-.96,2.99-1.53,4.41h-.59c-.58-1.67-1.15-3.34-1.72-5.01-.03-.09,0-.2,0-.32h.59c.47,1.39.94,2.82,1.44,4.3.64-1.42.98-2.89,1.58-4.31h.6c.48,1.44.96,2.88,1.45,4.38.15-.37.31-.72.42-1.07.29-.89.57-1.79.86-2.69.07-.21.18-.41.27-.61h.6Z"/>
    <path class="cls-7" d="M336.83,72.97c.16-.22.36-.18.58-.14.36.63.73,1.27,1.1,1.91.37.62.74,1.24,1.14,1.91.76-1.3,1.48-2.53,2.23-3.82h.52v5.31h-.59v-4.08c-.73,1.18-1.34,2.28-1.98,3.36h-.38c-.63-1.07-1.24-2.11-1.89-3.23v3.76c-.26.29-.48.25-.73.08v-5.07Z"/>
    <path class="cls-6" d="M324.72,78.16c-.26-.13-.22-.32-.22-.5,0-1.19,0-2.39,0-3.58,0-.36,0-.73,0-1.09.06-.06.11-.11.18-.18.8,0,1.61,0,2.42,0,.29,0,1.26.29,1.49.5.29.27.62.55.76.9.16.41.33.85.29,1.34-.03.42-.16.78-.31,1.15-.34.81-1,1.14-1.79,1.35-.39.1-.78.11-1.17.11-.56,0-1.13,0-1.64,0ZM325.25,73.43v4.13c.55,0,1.07-.02,1.59,0,.28.01.55-.04.8-.13.6-.22,1.05-.63,1.23-1.24.2-.7.2-.72,0-1.41-.13-.44-.34-.86-.83-1.05-.21-.08-.4-.21-.59-.3h-2.21Z"/>
    <path class="cls-9" d="M307.7,56.6h-.61v-5.31h.5c1.07,1.34,2.13,2.67,3.23,4.05.07-.72.02-1.37.03-2.03,0-.67,0-1.33,0-2.02h.69s0,0,.02.02c.01.01.02.03.02.05,0,1.7,0,3.4,0,5.07-.14.25-.35.2-.55.2-1.09-1.38-2.19-2.76-3.33-4.21v4.2Z"/>
    <path class="cls-12" d="M346.95,62.08c.13-.05.26-.1.42-.16,1.13,1.41,2.26,2.8,3.44,4.27v-4.19c.23-.05.44-.09.62.14v5.16h-.56c-1.07-1.35-2.17-2.73-3.31-4.16v4.16c-.21.01-.4.02-.61.03v-5.25Z"/>
    <path class="cls-10" d="M332.44,51.25c.89,0,1.76-.04,2.63.01.55.03,1.06.24,1.5.64.64.57.94,1.24.85,2.09-.02.24,0,.49,0,.71-.09.15-.18.27-.24.41-.4.88-.96,1.13-1.79,1.39-.43.13-.86.11-1.29.12-.55,0-1.09,0-1.66,0v-5.36ZM333.05,56c.56,0,1.09-.02,1.61,0,.28.01.55-.03.8-.14.57-.24,1.13-.52,1.23-1.24.22-.24.09-.53.12-.8.07-.57-.2-1-.58-1.4-.25-.26-.57-.39-.81-.53-.42-.06-.79-.12-1.16-.15-.4-.02-.8,0-1.22,0v4.26Z"/>
    <path class="cls-13" d="M328.06,67.34c-.38-.52-.78-1.05-1.17-1.58h-1.77v1.54h-.73v-5.2c.1-.04.2-.12.31-.12.59-.01,1.18-.04,1.77,0,.38.03.76.11,1.12.24.76.28,1.25,1.3.99,2.11-.2.62-.57.98-1.11,1.21.4.56.8,1.12,1.22,1.71-.19.15-.39.04-.62.09ZM325,65.13h2.04c.88-.29,1.08-.89.97-1.73-.18-.21-.4-.46-.6-.68-.82-.27-1.62-.1-2.42-.16v2.56Z"/>
    <path class="cls-14" d="M327.91,51.15c.14.03.29.08.43.1.57.06,1.07.25,1.5.65.33.31.6.65.75,1.09.21.63.19,1.27-.04,1.89-.35.95-.81,1.27-1.73,1.61-1.05.38-2.03.12-2.87-.56-.37-.3-.58-.75-.73-1.21-.42-1.32.23-2.7,1.47-3.27.24-.11.49-.2.78-.19.15,0,.29-.06.44-.09ZM328.52,56c.15-.06.24-.09.32-.13.34-.2.67-.38.9-.75.58-.94.44-1.74-.11-2.56-.17-.25-.41-.47-.73-.57-.05-.01-.89-.24-.93-.24-.32-.03-.62.08-.9.19-1.14.43-1.66,1.72-1.16,2.85.34.77.95,1.22,1.83,1.23.28,0,.57,0,.78,0Z"/>
    <path class="cls-5" d="M338.76,54.69c-.05-.16.1-.4-.11-.58-.04-.04-.03-.16,0-.23.13-.36.09-.77.26-1.11.24-.47.58-.9,1.08-1.15.37-.19.72-.45,1.19-.38.12.02.31-.15.36-.1.28.23.62,0,.9.18.34.21.7.36,1.04.57.23.14.73,1.04.76,1.32.02.19,0,.37.1.57.07.13-.09.36-.09.55,0,.26-.09.48-.19.71-.24.58-.69.94-1.18,1.26-.25.16-.56.24-.85.3-.47.09-1.43,0-1.84-.25-.42-.26-.87-.53-1.09-1.03-.09-.21-.22-.4-.35-.63ZM339.37,53.29c0,.3,0,.58,0,.87-.02.75.42,1.23,1,1.6.53.34,1.65.35,2.23.01.53-.31,1-.9,1.03-1.45.01-.26.02-.53,0-.79-.03-.53-.36-.92-.68-1.29-.18-.21-.86-.48-1.13-.49-.29-.01-.57,0-.87.09-.77.23-1.01.37-1.36,1.07-.06.12-.14.23-.23.38Z"/>
    <path class="cls-16" d="M309.88,62.09c.59.26,1.09.57,1.34,1.23,0,.12-.03.32,0,.52.09.49-.15.87-.39,1.24-.08.12-.24.18-.37.26-.1.06-.2.11-.29.18-.03.02-.03.07-.05.12.39.52.82,1.04,1.17,1.67h-.64c-.39-.53-.79-1.1-1.2-1.67-.54.22-1.15.05-1.75.13v1.54h-.61v-5.16l.17-.17c.42,0,.88.03,1.34,0,.46-.04.89.22,1.28.13ZM310.6,64.29c0-.13-.02-.27,0-.41.05-.38-.16-.66-.33-.96-.07-.11-.71-.34-.89-.35-.56,0-1.13,0-1.69,0v2.56c.53,0,1.06.02,1.58,0,.55-.03,1.07-.18,1.33-.83Z"/>
    <path class="cls-14" d="M320.23,54.94v1.64h-.59v-5.3c.23-.05.49-.02.74-.02.47,0,.93,0,1.4,0,.71,0,1.29.23,1.74.79.16.19.25.39.24.63,0,.34,0,.69,0,1.03-.23.49-.6.84-1.15,1.03.45.62.87,1.21,1.33,1.85h-.68c-.38-.51-.81-1.09-1.23-1.65h-1.81ZM323.16,53.45c0-.12,0-.3,0-.48,0-.49-.41-1-.87-1.11-.61-.14-1.39-.16-2.04-.07v2.6c.73.06,1.44.02,2.09-.13.41-.15.64-.42.82-.82Z"/>
    <path class="cls-10" d="M354,75.93c.42-.5.85-.84,1.18-1.29.34-.47.82-.84,1.23-1.26.19-.19.37-.37.56-.56h.59c-.13.32-.29.56-.51.77-.46.46-.92.92-1.38,1.38-.08.08-.16.17-.24.25.79.98,1.64,1.85,2.34,2.85,0,0,0,.04-.02.08h-.64c-.69-.8-1.4-1.62-2.1-2.44-.34.37-.66.71-1.02,1.08v1.36h-.56s-.1-.1-.15-.15v-5.18h.71v3.11Z"/>
    <path class="cls-19" d="M335.09,77.53v.61h-3.74v-5.32h3.6v.58h-3v1.71h2.66c.05.14.11.28.15.4-.09.09-.15.15-.23.23h-2.59v1.79h3.15Z"/>
    <path class="cls-9" d="M313.65,75.91c1.02-1.08,1.99-2.1,2.93-3.1h.62c-.03.09-.03.17-.07.22-.66.72-1.33,1.44-2.03,2.2.74.96,1.61,1.86,2.4,2.91h-.74c-.69-.8-1.39-1.62-2.06-2.39-.33.33-.64.64-1.05,1.05v1.19c-.35.25-.41.24-.71,0v-5.18h.71v3.1Z"/>
    <path class="cls-17" d="M319.26,65.74v1.56h-.7v-5.21c.08-.03.18-.12.28-.12.59-.01,1.18-.04,1.76,0,.38.03.76.11,1.11.24.82.3,1.25,1.35,1.01,2.09-.19.59-.51.97-1.07,1.19-.05.02-.09.07-.13.1-.37.05-.74.11-1.11.13-.36.02-.73,0-1.16,0ZM319.15,65.16c.84-.1,1.64.12,2.46-.21.18-.22.39-.48.62-.76-.06-.33-.12-.65-.17-.95-.19-.19-.37-.37-.52-.52-.8-.27-1.59-.09-2.39-.15v2.59Z"/>
    <path class="cls-1" d="M330.51,67.31c-.06-.06-.11-.11-.15-.15,0-1.68,0-3.35,0-5.05h3.72c.14.18.03.32-.13.46h-2.84v1.83h2.64v.45s0,.02-.02.02c-.87,0-1.73,0-2.62,0v1.94h2.96c.06.08.12.16.2.27-.04.06-.09.13-.16.23h-3.6Z"/>
    <path class="cls-20" d="M363.51,78.15h-.57c-.21-.47-.42-.95-.63-1.43h-2.84c-.2.45-.42.92-.65,1.42h-.72c.15-.29.3-.53.41-.79.54-1.2,1.05-2.41,1.65-3.58.15-.3.26-.62.39-.94h.6s.04.02.06.05c.81,1.61,1.46,3.3,2.29,4.89.05.09,0,.23,0,.37ZM360.88,73.51c-.43.91-.84,1.76-1.18,2.68h2.38c-.41-.91-.79-1.77-1.2-2.68Z"/>
    <path class="cls-18" d="M359.84,61.98h.48c.13.22.31.42.36.65.07.35.26.63.4.93.52,1.14,1.05,2.28,1.58,3.42.04.08.1.16.16.27-.25.15-.5.01-.71.09-.2-.46-.39-.89-.58-1.34h-2.91c-.19.4-.4.84-.62,1.3h-.56c0-.05-.04-.14-.02-.2.11-.26.24-.51.36-.76.37-.8.73-1.6,1.1-2.41.2-.44.4-.89.61-1.33.11-.22.24-.43.35-.63ZM360.03,62.68c-.35.98-.86,1.84-1.18,2.79h2.38c-.33-.98-.77-1.87-1.2-2.79Z"/>
    <path class="cls-18" d="M378.76,67.3h-.71c-.18-.41-.37-.85-.57-1.3h-2.9c-.21.43-.42.87-.63,1.32h-.61c.04-.15.06-.27.12-.38.38-.84.78-1.67,1.16-2.5.28-.61.54-1.24.83-1.85.1-.22.26-.42.37-.61h.45c.16.3.39.6.49.94.07.22.16.42.26.62.34.73.68,1.46,1.02,2.19.23.51.46,1.02.71,1.57ZM374.79,65.48h2.31c.18-.27,0-.47-.09-.67-.11-.28-.26-.53-.36-.83-.13-.41-.41-.78-.65-1.22-.42.94-.8,1.8-1.21,2.72Z"/>
    <path class="cls-3" d="M315.27,51.26h.65c.03.11.05.25.11.36.44.77.76,1.59,1.13,2.39.39.84.81,1.68,1.14,2.59h-.59c-.33-.4-.47-.94-.68-1.42h-2.89c-.21.48-.43.96-.64,1.43h-.6c.05-.15.08-.27.13-.39.42-1.06.92-2.09,1.41-3.12.29-.61.56-1.23.84-1.83ZM316.75,54.65c-.2-.5-.31-.98-.57-1.38-.26-.4-.29-.92-.65-1.29-.4.9-.78,1.77-1.18,2.67h2.4Z"/>
    <path class="cls-14" d="M318.4,78.14h-.64c.09-.19.16-.33.24-.48.37-.78.78-1.54,1.11-2.34.31-.77.67-1.51,1.01-2.26.04-.09.1-.16.15-.25h.58c.08.21.14.43.25.62.43.75.72,1.57,1.09,2.35.26.54.52,1.08.77,1.63.1.22.16.46.26.72h-.63c-.2-.44-.41-.92-.63-1.41h-2.8c-.24.45-.51.95-.75,1.42ZM321.73,76.2c-.41-.93-.8-1.8-1.2-2.7-.37.8-.72,1.56-1.07,2.33-.05.11-.06.24-.1.37h2.36Z"/>
    <path class="cls-15" d="M344.93,61.99c.24.16.15.37.18.58h-3.03v1.83h2.64v.47h-2.64v1.95h3.14v.47h-3.75v-5.31h3.47Z"/>
    <path class="cls-15" d="M336.28,66.85h3.56v.45h-4.35v-.43c1.1-1.38,2.23-2.81,3.38-4.25,0,0,0-.01-.02-.02-.01-.01-.03-.02-.05-.02-1.09,0-2.19,0-3.3,0v-.45s.09-.09.16-.16h3.89c.24.1.21.31.2.51-1.13,1.43-2.27,2.87-3.46,4.37Z"/>
    <path class="cls-3" d="M356,51.26h.64c.81,1.74,1.65,3.49,2.42,5.33h-.64c-.21-.46-.45-.95-.67-1.43h-2.85c-.21.48-.43.97-.65,1.44h-.64c.15-.37.26-.72.42-1.05.36-.78.74-1.55,1.11-2.33.25-.52.49-1.05.73-1.58.05-.1.08-.21.13-.38ZM356.34,51.93c-.42.94-.82,1.83-1.24,2.74.81,0,1.58,0,2.35,0,.02,0,.03-.02.05-.03.01-.01.02-.03.03-.05-.39-.87-.77-1.73-1.19-2.66Z"/>
    <path class="cls-20" d="M311.56,78.16h-.54c-.22-.47-.44-.95-.66-1.44h-2.86c-.21.46-.42.94-.64,1.42h-.68c.29-.63.57-1.22.84-1.81.16-.36.33-.72.47-1.08.14-.35.34-.66.46-1.03.16-.49.48-.94.72-1.4h.56c.78,1.73,1.62,3.44,2.34,5.19.01.03,0,.08-.02.16ZM310.14,76.19c-.4-.9-.79-1.77-1.21-2.7-.4.86-.77,1.66-1.13,2.47-.03.06,0,.15,0,.23h2.34Z"/>
    <path class="cls-11" d="M313.06,62.1h3.62v.46h-3.02v1.81h2.64c0,.17.02.32.03.49h-2.66v1.96h3.12v.49h-3.73v-5.21Z"/>
    <path class="cls-14" d="M367.93,66.21c.13.12.24.23.37.36-.26.42-.67.61-1.08.74-.23.07-.5.11-.74.12-.6.04-1.16-.16-1.69-.46-.62-.34-.9-.92-1.15-1.52.1-.39-.32-.77-.02-1.18.07-.09,0-.28,0-.33.39-1.01,1.03-1.61,2.04-1.87.99-.25,1.81.02,2.59.57.05.21-.06.33-.25.46-.34-.17-.68-.33-1.11-.53-.17,0-.43.01-.69,0-.56-.03-1.02.24-1.4.59-.39.36-.56.84-.6,1.4-.05.64.19,1.14.53,1.61.17.23.47.4.75.51.28.11.61.14.91.14.28,0,.58-.06.84-.16.23-.09.41-.28.67-.46Z"/>
    <path class="cls-14" d="M351.34,73.96c-.21-.15-.36-.27-.52-.37-.16-.09-.32-.19-.53-.19-.21,0-.41-.11-.62-.1-.22.01-.44.1-.66.17-1.07.33-1.5,1.26-1.46,2.09.03.54.22,1.06.61,1.44.33.31.74.54,1.23.55.32,0,.65,0,1,0,.25-.15.53-.32.81-.49.23-.02.36.09.35.41-.31.44-.83.56-1.35.68-.17.04-.36,0-.55,0-.48.03-.89-.14-1.32-.33-.65-.29-1.02-.79-1.27-1.41-.26-.66-.23-1.37.02-1.99.37-.91,1.34-1.67,2.33-1.62.2,0,.41,0,.61,0,.53,0,.99.13,1.37.51.07.08.18.12.31.2-.12.14-.24.27-.38.44Z"/>
    <path class="cls-14" d="M371.41,66.46c.28-1.31.08-2.57.16-3.87h-1.95v-.6h2.39c.05.05.09.09.16.16,0,1.25.02,2.52-.01,3.8-.01.44-.18.87-.56,1.16-.33.25-.73.43-1.13.32-.23-.06-.48-.07-.71-.2-.27-.16-.42-.41-.7-.6.16-.16.29-.29.44-.43.34.58.83.7,1.4.65.18-.13.37-.27.51-.37Z"/>
    <path class="cls-7" d="M355.24,67.31h-.61v-4.72h-1.83v-.46c.05-.05.11-.11.17-.17,1.34,0,2.68,0,4.02,0q.23.29.01.61h-1.76v4.74Z"/>
    <path class="cls-18" d="M344.63,72.82h.57v5.32c-.17,0-.36.02-.57.03v-5.35Z"/>
  </g>
  <g>
    <g>
      <path class="cls-21" d="M40.93,59.29c-1.36.44-2.6,1.01-3.9,1.24-1.58.28-3.21.28-4.82.38-.74.04-.75.01-.75.77,0,3.85,0,7.71.01,11.56,0,.5-.14.65-.64.65-1.77-.03-3.53-.02-5.3,0-.4,0-.54-.11-.54-.52.01-6.24.01-12.47,0-18.71,0-.44.15-.55.57-.55,2.57.01,5.13.02,7.7-.01.87-.01,1.74-.11,2.6-.26,2.2-.4,3.59-1.75,4.26-3.84.79-2.44.8-4.89-.07-7.31-.89-2.5-2.69-3.98-5.35-4.13-2.99-.17-5.99-.17-8.99-.24-.71-.02-.71,0-.71-.72,0-1.84.01-3.67-.01-5.51,0-.46.15-.59.6-.59,2.71.02,5.43-.05,8.14.05,3.95.14,7.45,1.38,10.04,4.56,1.72,2.11,2.68,4.54,3.11,7.21.41,2.54.09,5.05-.17,7.58-.4,3.84.57,7.39,2.95,10.49,2.08,2.71,4.8,4.47,8.19,5.09.78.14,1.59.16,2.38.17.46,0,.64.1.63.6-.03,2.02-.02,4.04,0,6.05,0,.46-.15.59-.6.58-6.3-.1-11.42-2.64-15.43-7.45-1.66-1.99-2.87-4.24-3.71-6.68-.06-.19-.15-.36-.18-.45Z"/>
      <path class="cls-21" d="M73.41,54.11c-.05-.82-.08-1.57-.13-2.33-.4-5.94-4.67-11.76-11.41-12.91-.09-.02-.18-.03-.27-.03-.52.03-.68-.2-.67-.72.03-1.91.01-3.82.01-5.73,0-.83.04-.87.86-.77,2.76.33,5.37,1.11,7.76,2.54,5.47,3.28,8.77,8.12,10.04,14.32.34,1.64.32,3.35.47,5.02.04.43-.09.61-.57.61-2.02-.02-4.04-.01-6.09-.01Z"/>
    </g>
    <path class="cls-8" d="M177.09,31.56h3.08v13.31c-.98,0-1.95.02-2.92-.02-.14,0-.3-.23-.41-.38-1.62-2.28-3.23-4.57-4.84-6.86-.16-.22-.31-.44-.58-.64v7.87h-3.14v-13.31c.99,0,1.97-.02,2.95.02.16,0,.34.24.46.41,1.65,2.33,3.29,4.66,4.93,6.99.12.17.25.34.46.63v-8.02Z"/>
    <path class="cls-8" d="M104.62,31.14c3.33,0,6.06,2.45,6.5,5.81.31,2.37-.13,4.55-1.8,6.32-3.43,3.65-9.37,2.29-10.96-2.48-1-3-.24-6.19,1.96-8.09,1.23-1.07,2.67-1.58,4.3-1.57ZM104.64,41.95c.13-.02.35-.03.56-.08,1.35-.32,2.17-1.21,2.55-2.49.42-1.41.17-2.71-.84-3.8-1.41-1.53-3.59-1.42-4.88.21-1.14,1.45-1.09,3.62.14,5.02.63.72,1.42,1.11,2.47,1.13Z"/>
    <path class="cls-8" d="M127.25,62.57c.12-4.24,1.65-7.53,4.82-9.97,4.25-3.27,9.86-2.82,13.62,1.03,4.58,4.69,4.74,12.38.36,17.24-3.58,3.97-9,4.78-13.33,1.93-2.87-1.88-4.52-4.62-5.18-7.95-.17-.83-.21-1.69-.28-2.28ZM147.77,62.81c-.02-2.66-.64-4.77-1.93-6.68-3.55-5.25-10.32-5.69-14.45-.96-3.61,4.14-3.54,10.67.15,14.74,3.5,3.86,8.84,4.18,12.7.69,2.4-2.17,3.47-4.96,3.52-7.8Z"/>
    <path class="cls-8" d="M87.83,61.58c.12-3.44,1.75-6.82,5.13-9.23,4.35-3.11,9.83-2.42,13.56,1.6,5.11,5.51,4.06,14.73-2.14,18.84-4.58,3.03-10.55,1.91-13.96-2.64-1.75-2.33-2.58-4.97-2.58-8.57ZM108.32,62.43c-.01-2.35-.67-4.48-1.99-6.41-3.2-4.65-9.14-5.52-13.31-1.91-5.01,4.34-4.71,11.7-.82,15.88,3.36,3.62,8.33,4.06,12.08,1.05,2.74-2.2,3.98-5.15,4.04-8.62Z"/>
    <path class="cls-8" d="M162.66,36.65v-5.08h3.07v13.26h-3.07v-5.43h-4.47v5.42h-3.12v-13.27h3.1v5.09h4.49Z"/>
    <path class="cls-8" d="M191.48,44.85h-3.1v-13.28h3.1v5.21s.07.02.11.02c1.06-1.53,2.15-3.04,3.17-4.6.34-.52.71-.71,1.32-.68.97.05,1.95.01,3.04.01-1.62,2.16-3.17,4.22-4.75,6.32,1.71,2.31,3.42,4.62,5.2,7.03-1.38,0-2.63.01-3.88-.02-.15,0-.34-.19-.44-.33-1.13-1.58-2.24-3.18-3.36-4.77-.1-.14-.21-.27-.43-.38v5.48Z"/>
    <path class="cls-8" d="M212.26,44.87c-1.03,0-2.02.01-3.02-.02-.14,0-.33-.19-.39-.34-.21-.52-.34-1.07-.56-1.59-.07-.17-.31-.36-.47-.37-1.18-.03-2.36-.03-3.55,0-.17,0-.4.2-.49.36-.19.39-.36.8-.44,1.22-.12.63-.46.78-1.07.74-.8-.06-1.6-.01-2.48-.01.05-.19.08-.34.13-.49,1.43-4.15,2.86-8.3,4.29-12.45.11-.31.25-.43.58-.42.87.02,1.75,0,2.62.02.16,0,.42.16.47.3,1.46,4.25,2.9,8.52,4.33,12.78.02.06.02.14.04.25ZM207.31,39.85c-.4-1.33-.79-2.63-1.18-3.93-.04,0-.08.01-.13.02-.4,1.29-.79,2.58-1.2,3.91h2.51Z"/>
    <path class="cls-8" d="M87.76,44.85v-13.22s.08-.07.1-.07c1.91,0,3.82-.04,5.72.05,1.5.07,2.83,1.31,3.09,2.93.16,1.02.15,2.11-.05,3.12-.34,1.76-1.69,2.73-3.5,2.76-.72.01-1.45,0-2.25,0v4.43h-3.12ZM90.9,37.59c1.39.16,2.12-.03,2.46-.61.34-.58.3-1.67-.11-2.12-.66-.72-1.51-.52-2.35-.5v3.23Z"/>
    <path class="cls-8" d="M203.56,50c2.98,8.11,5.9,16.07,8.82,24.05-.09.03-.14.05-.19.05q-1.37.04-1.84-1.25c-.72-1.98-1.45-3.95-2.15-5.94-.13-.37-.31-.5-.7-.49-2.66.02-5.31.02-7.97,0-.4,0-.56.15-.69.51-.8,2.22-1.63,4.43-2.43,6.64-.14.4-.32.6-.77.54-.3-.04-.61,0-1,0,2.97-8.04,5.91-16,8.91-24.11ZM203.56,54.02c-1.36,3.74-2.67,7.32-3.99,10.94h7.92c-1.3-3.64-2.59-7.21-3.93-10.94Z"/>
    <path class="cls-8" d="M193.89,74.11c-.73,0-1.31.03-1.88-.02-.18-.01-.38-.19-.51-.34-3.09-3.43-6.16-6.87-9.24-10.31-.11-.12-.2-.25-.31-.39-.42.27-.58.56-.58,1.02.02,3.13,0,6.25,0,9.38,0,.2,0,.39,0,.63h-1.33v-23.31h1.3v10.78c.24-.24.38-.36.5-.49,2.95-3.22,5.9-6.42,8.83-9.66.44-.49.88-.76,1.54-.66.28.04.57,0,1,0-3.51,3.83-6.92,7.54-10.36,11.29,3.65,4,7.28,7.99,11.03,12.09Z"/>
    <path class="cls-8" d="M135.72,31.56h6.74v2.93h-3.64v2.18h3.46v2.95h-3.47v2.24h3.65v2.97h-6.74v-13.28Z"/>
    <path class="cls-8" d="M153.09,36.09c-.96-1.17-2.03-1.69-3.38-1.38-2.23.51-3.27,3.47-1.99,5.59.86,1.43,2.63,1.96,4.07,1.19.44-.24.82-.59,1.3-.94,0,.46,0,.9,0,1.34,0,.76-.01,1.53,0,2.29,0,.28-.1.4-.36.51-3.94,1.69-8.1-.91-8.72-5.18-.41-2.83.36-5.28,2.69-7.05,1.86-1.42,3.94-1.55,6.08-.64.12.05.28.21.28.33.02,1.26.01,2.53.01,3.95Z"/>
    <path class="cls-8" d="M163.75,68.82c.29.55.52,1.04.79,1.51,1.2,2.04,2.85,2.95,4.83,2.66,2.19-.31,3.88-1.84,4.45-4.02.57-2.19-.17-3.97-2.13-5.09-1.47-.84-2.95-1.65-4.42-2.48-.44-.25-.85-.55-1.28-.83-3.31-2.11-2.56-7.47.23-9.26,2.75-1.76,6.62-.76,8.03,2.18.06.12.02.35-.06.45-.23.25-.5.46-.8.72-.25-.35-.46-.67-.7-.99-1.19-1.57-2.91-2.17-4.61-1.61-1.66.54-2.75,2.17-2.81,4.08-.04,1.3.4,2.38,1.46,3.11,1.04.72,2.16,1.33,3.26,1.97.88.51,1.77.99,2.65,1.51,2.71,1.58,3.18,4.26,2.59,6.63-.98,3.96-5.2,6.17-8.85,4.66-1.07-.44-1.93-1.17-2.56-2.13-.48-.74-.87-1.54-1.33-2.36.45-.25.83-.46,1.25-.69Z"/>
    <path class="cls-8" d="M115.71,63v11.07h-1.35v-23.26s.04-.05.07-.05c1.73.02,3.47-.11,5.18.08,2.94.33,4.71,2.33,4.93,5.34.13,1.79-.13,3.49-1.35,4.91-1.15,1.34-2.7,1.85-4.42,1.9-1,.03-1.99,0-3.06,0ZM115.73,61.56c1.12,0,2.2.07,3.26-.01,2.01-.15,3.45-1.34,3.92-3.15.28-1.08.28-2.16-.01-3.23-.33-1.21-1.05-2.09-2.23-2.58-1.61-.67-3.28-.33-4.94-.41v9.38Z"/>
    <path class="cls-8" d="M128.62,34.51h-2.49v-2.94h8.16v2.94h-2.53v10.34h-3.14v-10.33Z"/>
    <path class="cls-8" d="M119.98,44.85h-6.76v-13.28h3.05v10.31h3.71v2.97Z"/>
    <path class="cls-8" d="M121.63,44.83v-13.27h3.07v13.27h-3.07Z"/>
    <path class="cls-8" d="M182.77,31.55h3.04v13.28h-3.04v-13.28Z"/>
    <path class="cls-8" d="M153.78,50.76h1.35v21.91h5.35v1.39h-6.7v-23.3Z"/>
  </g>
</svg>