<?xml version="1.0" encoding="UTF-8"?>
<svg id="Layer_1" data-name="Layer 1" xmlns="http://www.w3.org/2000/svg" viewBox="0 0 100 100">
  <defs>
    <style>
      .cls-1 {
        stroke-width: 0px;
      }
    </style>
  </defs>
  <path class="cls-1" d="M98.72,45.17c-.9,2.34-1.81,4.68-2.78,7.19-4.1-1.45-7.9-2.56-11.46-4.17-1.56-.71-2.49-2.73-4.02-3.62-2.15-1.25-4.59-2.02-6.92-2.94-.21-.08-.62.23-.88.44-5.03,4.02-10.08,8.01-15.03,12.12-1,.83-1.84,2.06-2.29,3.27-1.3,3.55-2.41,7.18-3.46,10.82-.18.62.09,1.83.55,2.09,5.23,2.92,10.69,5.08,16.88,4.68,5.21-.33,9.31-2.77,12.95-6.28-2.16,5.17-6.02,8.57-11.38,10.15-7.48,2.22-14.58.5-21.23-2.91-4.73-2.43-9.11-5.55-13.64-8.37-4.86-3.03-9.89-5.66-15.61-6.74-7.44-1.4-13.92.48-19.5,5.54-.19.18-.41.33-.71.37,2.86-5.75,7.53-9.26,13.77-10.64,6.13-1.36,12.06-.18,17.94,2.06,1.09-4.68,2.2-9.04.56-13.8-1.8-5.21-2.86-10.67-4.27-16.01-.09-.36-.38-.85-.68-.95-2.7-.84-5.35-2.17-8.31-1.48-2.61.61-5.03.27-7.47-.84-2.06-.94-4.2-1.7-6.37-2.36-1.36-.42-1.8-1.22-1.38-2.41.8-2.29,1.75-4.53,2.67-6.88,3.96,1.48,7.56,2.53,10.87,4.17,1.81.9,3.09,2.82,4.68,4.21.68.6,1.47,1.21,2.32,1.47,18.08,5.59,36.16,11.18,54.3,16.6,1.84.55,4.03-.11,6.05-.03,1.64.06,3.32.18,4.89.62,3.02.83,5.96,1.91,8.94,2.88v1.75ZM34.09,29.45c1.83,5.33,3.12,10.29,5.22,14.88,3.28,7.17,9.49,8.73,16.12,4.36,2.81-1.85,5.37-4.05,8.04-6.12,1.17-.91,2.3-1.86,3.69-3-11.1-3.4-21.82-6.68-33.06-10.13Z"/>
  <path class="cls-1" d="M63.03,86.47c-12.65.28-24.23-3.02-34.76-9.85-2.27-1.47-4.49-3.03-6.86-4.33-5.49-3.01-9.1-2.96-14.8.11.51-2.58,2.12-4.07,3.99-5.26,4.13-2.63,8.54-2.24,12.89-.71,2.05.72,4.09,1.7,5.85,2.96,9.77,7.01,20.58,11.96,31.76,16.22.66.25,1.29.57,1.93.86Z"/>
  <path class="cls-1" d="M47.75,49.64c-3.7-.04-6.43-2.86-6.41-6.59.02-3.68,2.87-6.51,6.54-6.5,3.59,0,6.58,2.96,6.6,6.53.03,3.68-2.98,6.61-6.74,6.56Z"/>
</svg>