<?xml version="1.0" encoding="UTF-8"?>
<svg id="Layer_1" data-name="Layer 1" xmlns="http://www.w3.org/2000/svg" viewBox="0 0 100 100">
  <defs>
    <style>
      .cls-1 {
        stroke-width: 0px;
      }
    </style>
  </defs>
  <path class="cls-1" d="M60.6,10.55c.8.25,1.78.46,2.67.86,12.93,5.78,22.17,15.2,27.57,28.28.53,1.28.56,3.01.21,4.38-6.04,23.77-21.1,38.61-44.74,44.83-1.13.3-2.56.36-3.62-.06-14.48-5.68-24.39-15.89-29.75-30.47-.37-1.01-.34-2.34-.04-3.39,6.82-23.53,22.05-38.35,45.96-44.08.52-.12,1.05-.21,1.74-.34ZM51.34,52.6c1.06-1.21,2.12-2.4,3.02-3.42,1.98.24,2.48,4.01,4.71,1.9,2.34-2.21-1.47-2.81-1.66-4.44,1.14-1.15,2.3-2.31,3.39-3.4,1.69.33,2.19,3.81,4.33,1.93,2.5-2.2-1.53-2.95-1.55-4.34,1.24-1.37,2.31-2.53,3.76-4.13.67.89,1.13,1.88,1.9,2.39.53.35,1.79.31,2.18-.09.39-.4.42-1.75.03-2.18-1.95-2.21-4.04-4.32-6.2-6.32-.39-.36-1.77-.35-1.99-.03-.39.57-.53,1.65-.23,2.26.43.89,1.33,1.55,2.03,2.31-.25-.09-.51-.19-.76-.28-.89,1.34-1.77,2.68-2.42,3.66-2.15-.36-2.68-3.87-4.83-1.88-2.46,2.27,1.71,2.88,1.68,4.08-1.28,1.6-2.27,2.85-3.09,3.88-2.01-.34-2.59-4.06-4.82-1.85-2.16,2.13,1.65,2.79,1.72,4.44-1.08,1.22-2.13,2.41-2.99,3.39-2.08-.29-2.63-4.03-4.85-1.85-2.23,2.19,1.55,2.8,1.64,3.81-1.29,1.58-2.34,2.86-3.17,3.89-1.92-.15-2.34-3.82-4.53-1.77-2.36,2.22,1.32,2.85,1.66,4.61-1.12,1.01-2.35,2.11-4.01,3.61-.51-.69-.98-1.64-1.73-2.2-.46-.35-1.72-.41-1.98-.08-.42.53-.7,1.81-.37,2.19,2,2.29,4.14,4.46,6.36,6.54.38.36,1.76.33,1.99,0,.39-.56.54-1.65.25-2.25-.43-.89-1.34-1.55-1.63-1.87,1.11-1.57,2.04-2.88,2.78-3.93,2.08.47,2.66,3.89,4.75,2.04,2.56-2.26-1.63-2.89-1.62-4.41,1.14-1.34,2.18-2.56,3.05-3.58,2.02.25,2.58,3.99,4.82,1.85,2.13-2.04-1.31-2.74-1.62-4.45Z"/>
  <path class="cls-1" d="M33.14,91.28c-4.13-.18-8.31-.01-12.37-.64-5.58-.86-9.4-4.87-10.1-10.67-.48-4-.09-8.11.14-12.3,5.52,9.63,12.96,17.28,22.56,22.83-.07.26-.14.52-.21.77Z"/>
  <path class="cls-1" d="M71.84,8.72c4.25.32,8.56.29,12.73,1.04,5.4.96,8.3,4.36,8.71,9.77.28,3.72.05,7.47-.25,11.38-5.52-8.77-12.43-16.02-21.36-21.24.06-.31.11-.63.17-.94Z"/>
</svg>