<?xml version="1.0" encoding="UTF-8"?>
<svg id="Layer_1" data-name="Layer 1" xmlns="http://www.w3.org/2000/svg" viewBox="0 0 100 100">
  <defs>
    <style>
      .cls-1 {
        stroke-width: 0px;
      }
    </style>
  </defs>
  <path class="cls-1" d="M66.41,6.02c6.63.07,13.73,3.51,19.66,9.53,4.69,4.76,7.81,10.37,8.78,17.06.86,5.89-.1,11.52-2.53,16.92-2.02,4.5-4.94,8.36-8.48,11.77-4.42,4.25-9.1,8.14-14.8,10.59-2.66,1.14-5.43,1.88-8.34,1.98-.37.01-.85-.17-1.11-.43-10.62-10.6-21.22-21.22-31.81-31.85-.24-.24-.41-.7-.39-1.05.19-4.2,1.49-8.09,3.63-11.67,4.39-7.35,9.89-13.68,17.24-18.21,5.06-3.12,10.62-4.63,18.15-4.64Z"/>
  <path class="cls-1" d="M27.84,46.25c9.04,9.05,18.09,18.11,27.33,27.37-1.7-.56-3.22-1.02-4.71-1.58-2.39-.9-4.82-1.26-7.35-.93-2.77.37-5.11,1.57-7.03,3.59-5.69,5.98-11.38,11.97-17.06,17.96-1.65,1.74-3.49,1.76-5.19.06-1.77-1.77-3.54-3.54-5.3-5.31-1.62-1.63-1.61-3.51.04-5.08,5.86-5.59,11.66-11.23,17.6-16.73,4.3-3.98,4.99-9.6,3.13-14.67-.49-1.34-.9-2.7-1.33-4.06-.07-.22-.09-.46-.12-.63Z"/>
  <path class="cls-1" d="M95.14,85.77c-.02,4.57-3.7,8.19-8.31,8.18-4.51-.02-8.18-3.73-8.16-8.26.02-4.57,3.72-8.25,8.29-8.23,4.55.01,8.2,3.72,8.18,8.32Z"/>
</svg>