<?xml version="1.0" encoding="UTF-8"?>
<svg id="Layer_1" data-name="Layer 1" xmlns="http://www.w3.org/2000/svg" viewBox="0 0 100 100">
  <defs>
    <style>
      .cls-1 {
        stroke-width: 0px;
      }
    </style>
  </defs>
  <path class="cls-1" d="M87.42,28.95c-2.04-.56-3.78-.94-5.43-1.57-.48-.18-.87-1.02-1-1.63-1.85-8.75-7.46-14.53-15.56-15.64-6.76-.93-13,.78-18.65,4.5-8.82,5.81-14.51,13.87-16.05,24.36-1.69,11.55,3.77,21.13,14.35,23.54,1.86.42,3.84.56,5.75.49,1.24-.05,1.9.23,2.43,1.32.64,1.33,1.43,2.59,2.32,4.17-2.04.48-4,.91-5.95,1.41-5.98,1.52-11.8,3.41-17.14,6.65-4.87,2.95-7.83,7.66-11.44,11.79-1.96,2.24-3.82,4.56-5.7,6.87-1.06,1.31-2.13,1.4-3.42.32-1.88-1.58-3.78-3.13-5.71-4.65-1.5-1.18-1.5-2.36-.3-3.78,3.41-4.03,6.63-8.23,10.17-12.15,4.31-4.76,6.06-10.49,6.79-16.61.89-7.37,1.19-14.83,2.33-22.16C27.99,18.37,45.29,3.21,63.09,3.72c11.67.34,21.74,8.75,23.72,20.32.27,1.57.39,3.17.6,4.91ZM29.04,60.59c-1.1,3.46-2.24,6.97-3.29,10.5-.13.44.08,1.13.38,1.48.21.24.96.27,1.31.08,3.3-1.75,6.57-3.57,9.7-5.29-2.6-2.18-5.37-4.5-8.1-6.78Z"/>
  <path class="cls-1" d="M87.32,52.44c-.33,4.28-2.1,7.71-5.96,9.81-4.25,2.3-8.5,1.69-12.2-.99-4.45-3.22-8.57-6.9-12.77-10.45-.43-.37-.7-1.29-.59-1.87,1.42-7.41,5.71-12.55,12.54-15.66,1.28-.58,2.29-.53,3.43.45,3.67,3.15,7.46,6.15,11.14,9.29,2.86,2.45,4.27,5.63,4.41,9.41Z"/>
  <path class="cls-1" d="M55.61,54.41c3.51,2.91,6.71,5.54,9.88,8.21,5.66,4.79,12.83,5.61,18.32,2.06,8.8-5.7,8.95-17.84.33-24.8-3.1-2.5-6.14-5.07-9.3-7.69,7.95-1.87,20.51,4.38,22.53,17.47,1.69,10.94-5.32,22.44-18.52,24.22-11.39,1.53-22.27-7.39-23.23-19.47Z"/>
</svg>