<?xml version="1.0" encoding="UTF-8"?>
<svg id="Layer_1" data-name="Layer 1" xmlns="http://www.w3.org/2000/svg" viewBox="0 0 100 100">
  <defs>
    <style>
      .cls-1 {
        stroke-width: 0px;
      }
    </style>
  </defs>
  <path class="cls-1" d="M35.91,10.3c-2.11,4.72-5.05,8.86-4.31,14.45,1.54-3.31,2.83-6.4,4.36-9.35C42.72,2.44,55.88-1.92,68.91,4.59c9.22,4.61,16.77,11.32,22.36,19.91,2.23,3.42,3.47,7.63,4.49,11.64.95,3.75-.33,7.4-2.18,10.84-4.99,9.29-12.44,16.25-20.83,22.35-3.83,2.79-7.76,5.43-11.63,8.17-.91.64-1.72,1.42-2.68,2.22-12.41-4.54-23.23-11.8-32.37-21.58-.38-.41-.9-1.23-.74-1.51,1.2-2.12-.48-3.42-1.2-5.03-2.71-6.04-6.1-11.91-7.86-18.22-2.4-8.63-.09-17.04,4.21-24.79,1.91-3.44,7.07-4.31,10.73-1.98,1.61,1.03,3.03,2.36,4.69,3.68Z"/>
  <path class="cls-1" d="M55.39,86.23c-.98,5.92-3.6,8.67-9.09,8.99-12.67.76-22.18-5.16-29.89-14.63-.33-.41-.62-.85-.91-1.29-4.05-6.12-4.36-6.67,1.19-10.88,1.62-1.23,2.74-3.14,4.17-4.84,9.17,11.14,20.51,19.01,34.52,22.65Z"/>
  <path class="cls-1" d="M21.68,62.14c.77-1.11,1.55-2.24,2.58-3.72,9.35,10.55,20.6,18.05,33.55,22.91-1.18,3.64-1.26,3.68-4.54,2.66-12.51-3.91-22.98-11.14-31.59-21.85Z"/>
</svg>