<?xml version="1.0" encoding="UTF-8"?>
<svg id="Layer_1" data-name="Layer 1" xmlns="http://www.w3.org/2000/svg" viewBox="0 0 100 100">
  <defs>
    <style>
      .cls-1 {
        stroke-width: 0px;
      }
    </style>
  </defs>
  <path class="cls-1" d="M19.94,15.39h-3.47c0,2.23.06,4.41-.04,6.58-.03.65-.34,1.49-.82,1.89-1.18.96-2.65.76-3.96.3-1.23-.43-1.44-1.57-1.33-2.77.03-.33,0-.67,0-1.04-1.66.31-3.26.79-4.56-.42-1.33-1.23-.47-2.98-.85-4.6-1,0-2.03,0-3.06,0-1.26-.01-1.83-.59-1.85-1.85-.02-1.87.41-2.51,1.78-2.57.52-.02,1.04,0,1.56-.01.51,0,1.03,0,1.67,0,0-.94-.01-1.8,0-2.66.03-1.67.92-2.54,2.59-2.56.85,0,1.7,0,2.7,0,0-.28,0-.72,0-1.16.04-1.86.81-2.62,2.7-2.66.24,0,.49,0,.73,0,1.96.02,2.72.76,2.72,2.7,0,2.07,0,4.15,0,6.28h67.05c0-2.06.03-4.06-.01-6.07-.02-1.15.09-2.29,1.31-2.67,1.35-.42,2.84-.63,4.06.36.42.34.61,1.05.74,1.63.12.55.03,1.15.03,1.58,1.05,0,1.93,0,2.82,0,1.55.02,2.44.88,2.49,2.45.03.87,0,1.73,0,2.77,1.03,0,2.03-.01,3.02,0,1.55.02,2.02.62,2,2.46-.02,1.43-.56,1.96-2.05,1.96-.93,0-1.87,0-2.97,0,0,.68-.04,1.29,0,1.9.23,3.28-1.82,3.73-4.39,3.33-.26-.04-.52-.14-.94-.26,0,.69.04,1.3,0,1.9-.09,1.32-.97,2.16-2.28,2.22-.52.02-1.04.02-1.56,0-1.37-.05-2.25-.93-2.27-2.32-.03-1.94-.04-3.89,0-5.83.02-.74-.24-.97-.96-.94-1.21.05-2.42.01-3.62.01-.48,2.75-2.26,4.78-3.57,7.02-4.86,8.32-9.82,16.58-14.72,24.89-.28.47-.44,1.09-.44,1.65-.03,5.21,0,10.42-.04,15.62,0,.82.28,1.24.96,1.61,2.43,1.33,4.83,2.72,7.25,4.08,2.09,1.17,3.17,2.96,3.18,5.34.02,6.32.02,12.64,0,18.96-.01,2.23-1.59,3.75-3.75,3.74-2.15-.02-3.63-1.55-3.67-3.8-.08-4.31-.2-8.61-.23-12.92-.02-1.86-.75-3.04-2.54-3.72-4.33-1.65-8.62-3.41-12.93-5.12-.25-.1-.52-.16-.82-.26-2.38,3.75-4.73,7.47-7.08,11.18-2.58,4.07-5.14,8.15-7.74,12.22-1.02,1.6-2.75,2.23-4.41,1.69-1.99-.65-3.17-2.28-2.97-4.24.06-.57.29-1.14.54-1.66,4-8.3,8.02-16.59,12-24.91.34-.72.55-1.57.56-2.37.05-5.21.05-10.42,0-15.63,0-.68-.21-1.45-.56-2.03-5.7-9.68-11.43-19.34-17.14-29.01-.39-.66-.57-1.44-.89-2.28ZM26.21,15.38c.09.25.11.35.17.44,4.02,6.72,8.04,13.44,12.1,20.14.17.28.64.52.97.52,6.66.03,13.33.03,19.99,0,.39,0,.94-.3,1.14-.63,4.01-6.61,7.97-13.24,11.94-19.87.09-.16.12-.35.19-.59H26.21Z"/>
  <path class="cls-1" d="M49.27,16.95c4.63-.06,8.54,3.74,8.61,8.36.07,4.68-3.76,8.62-8.43,8.66-4.65.04-8.53-3.74-8.61-8.38-.07-4.7,3.72-8.59,8.42-8.65Z"/>
</svg>