<?xml version="1.0" encoding="UTF-8"?>
<svg id="Layer_1" data-name="Layer 1" xmlns="http://www.w3.org/2000/svg" viewBox="0 0 100 100">
  <defs>
    <style>
      .cls-1 {
        stroke-width: 0px;
      }
    </style>
  </defs>
  <path class="cls-1" d="M45.59,62.4c-.14,3.99-.28,7.99-.41,11.98-.13,4.07-.22,8.15-.36,12.22-.09,2.54-1.62,4.17-3.83,4.22-2.3.05-4.06-1.6-4.15-4.15-.51-14.23-1.1-28.46.81-42.64.43-3.16.78-6.33,1.02-9.51.04-.58-.47-1.38-.97-1.78-2.24-1.82-4.61-3.48-6.86-5.29-1.58-1.27-2.04-2.93-1.45-4.92,2.01-6.85,5.2-13.17,8.7-19.33.88-1.54,2.55-1.87,3.98-1.04,1.45.84,1.96,2.36,1.25,3.94-1.62,3.61-3.28,7.2-4.92,10.8-1.91,4.21-1.37,5.87,2.67,7.97,3.77,1.96,7.56,3.88,11.37,5.77,3.46,1.73,4.56,3.49,4.01,7.38-.41,2.85-1.35,5.63-1.73,8.49-.92,6.87.44,13.49,3.44,19.61,3.06,6.24,6.69,12.21,10.08,18.29,1.14,2.04.97,3.98-.52,5.32-1.4,1.26-3.59,1.41-5.05.21-.62-.51-1.13-1.21-1.55-1.91-4.76-8.09-9.49-16.2-14.24-24.3-.29-.49-.6-.98-.9-1.46-.14.04-.27.08-.41.13Z"/>
  <path class="cls-1" d="M49.97,98.21c-14.11,0-28.23,0-42.34,0-.71,0-1.51.19-2.1-.07-.64-.28-1.4-.93-1.52-1.53-.08-.39.81-1.1,1.39-1.48.34-.22.92-.06,1.39-.06,20.96-.07,41.93-.13,62.89-.2,7.8-.03,15.59-.06,23.39-.09.47,0,1.06-.17,1.39.05.62.41,1.37.97,1.53,1.61.09.36-.81,1.12-1.4,1.45-.47.25-1.15.14-1.74.14-14.29,0-28.58,0-42.88,0,0,.06,0,.12,0,.18Z"/>
  <path class="cls-1" d="M52.99,7.04c5.28-.03,9.49,4.11,9.52,9.37.03,5.32-4.24,9.63-9.51,9.61-5.16-.02-9.49-4.36-9.49-9.51,0-5.19,4.25-9.44,9.48-9.47Z"/>
  <path class="cls-1" d="M75.82,32.8c-3.58-2.58-7.09-5.07-10.55-7.62-.97-.71-2.7-1.33-1.64-2.96,1.14-1.76,2.38-.37,3.43.37,4.24,3,8.43,6.07,12.68,9.05,1.62,1.14,2.14,2.61,1.72,4.45-.63,2.72-2.1,4.88-4.62,6.17-2.42,1.23-4.4-.05-4.38-2.76.01-2.01.57-3.13,3.37-6.71Z"/>
</svg>