<?xml version="1.0" encoding="UTF-8"?>
<svg id="Layer_1" data-name="Layer 1" xmlns="http://www.w3.org/2000/svg" viewBox="0 0 100 100">
  <defs>
    <style>
      .cls-1 {
        stroke-width: 0px;
      }
    </style>
  </defs>
  <path class="cls-1" d="M51.88,96.45c-.36-.03-.72-.06-1.08-.08-2.84-.16-5.64-.6-8.4-1.27-.23-.06-.4-.18-.55-.35-3.33-3.7-6.03-7.82-8.25-12.26-2.9-5.81-4.92-11.93-6.28-18.27-.81-3.78-1.37-7.6-1.68-11.46-.05-.65-.09-1.3-.13-1.99.52.04,1.01.06,1.49.11,8.33.76,16.2,3.18,23.75,6.69.16.07.3.13.32.36.19,2.61.62,5.19,1.18,7.74.75,3.43,1.76,6.77,3.07,10.02,2.3,5.72,5.38,10.99,9.48,15.62.84.95,1.75,1.83,2.62,2.75.06.06.14.11.24.19-.13.05-.19.08-.26.1-3.16.98-6.38,1.63-9.68,1.91-.75.06-1.5.1-2.24.15-.07,0-.14.02-.21.04h-3.39Z"/>
  <path class="cls-1" d="M100.02,51.68c-.03.37-.06.74-.08,1.11-.72,10.83-4.7,20.29-11.95,28.36-4.82,5.37-10.62,9.36-17.32,12.05-.23.09-.38.07-.57-.1-4.42-4.03-7.86-8.78-10.52-14.12-.44-.88-.84-1.78-1.25-2.67-.04-.09-.07-.18-.12-.29.1-.04.19-.07.28-.1,7.3-2.61,13.85-6.48,19.59-11.71,3.85-3.51,7.18-7.47,10.04-11.83,3.83-5.86,6.73-12.15,8.69-18.87.02-.08.05-.15.08-.27.05.1.08.17.1.23,1.34,3.52,2.25,7.15,2.68,10.89.14,1.24.21,2.49.31,3.74,0,.08.02.16.04.24v3.34Z"/>
  <path class="cls-1" d="M55.27,3.52c.38.03.75.06,1.13.09,8.29.52,15.89,3.08,22.82,7.65.13.09.2.17.21.34.02,1.68-.15,3.35-.46,5-.01.05-.03.11-.04.15-15.19-6.07-30.96-8.46-47.29-7.68.06-.05.1-.08.15-.1,4.46-2.38,9.18-3.99,14.17-4.82,1.89-.31,3.8-.51,5.72-.59.07,0,.14-.02.21-.04,1.13,0,2.26,0,3.39,0Z"/>
  <path class="cls-1" d="M7.11,51.3c.03-1.31.03-2.57.09-3.83.09-2,.34-3.98.7-5.95.64-3.43,1.65-6.75,3.04-9.95.05-.11.17-.22.28-.25,3.88-1.34,7.84-2.36,11.88-3.07,4.98-.88,9.99-1.28,15.04-1.25,4.29.03,8.57.36,12.81,1.01,6.72,1.02,13.25,2.73,19.57,5.24.29.12.58.24.87.36.02,0,.04.02.09.05-.05.07-.09.15-.13.22-3.36,5.13-7.24,9.84-11.5,14.25-2.41,2.49-4.93,4.86-7.56,7.1-.14.12-.24.15-.42.06-5.79-2.75-11.83-4.77-18.12-6.02-3.01-.6-6.05-.98-9.11-1.09-4.22-.15-8.39.21-12.48,1.32-1.63.44-3.21,1-4.76,1.69-.07.03-.15.06-.29.12Z"/>
  <path class="cls-1" d="M57.25,73.64c-.04-.1-.08-.19-.11-.28-1.63-4.4-2.75-8.93-3.34-13.59-.09-.69-.14-1.38-.23-2.07-.02-.17.04-.28.17-.39,5.93-5.05,11.29-10.65,16.05-16.83,3.1-4.03,5.87-8.27,8.09-12.85,1.61-3.33,2.9-6.78,3.56-10.43.22-1.22.32-2.46.47-3.69,0-.08.01-.16.02-.27.08.05.14.08.19.12,5.49,4.32,9.82,9.59,12.97,15.83.06.13.08.31.04.46-.92,4.13-2.32,8.1-4.05,11.96-2.27,5.07-5.1,9.79-8.58,14.12-5.05,6.26-11.11,11.29-18.29,14.95-2.16,1.1-4.38,2.04-6.66,2.86-.1.03-.2.07-.31.1Z"/>
  <path class="cls-1" d="M78.32,19.31c-1.24,4.33-3.17,8.3-5.44,12.13-9.59-3.97-19.55-6.2-29.88-6.82-10.33-.62-20.47.49-30.44,3.58.24-.44.45-.82.66-1.2,3.39-5.9,7.85-10.84,13.37-14.81.14-.1.32-.16.48-.18,2.76-.28,5.53-.45,8.3-.52,3.01-.07,6.01,0,9.02.17,3.08.19,6.14.5,9.19.94,4.62.67,9.17,1.61,13.67,2.87,3.64,1.02,7.23,2.21,10.71,3.69.11.05.22.1.36.15Z"/>
  <path class="cls-1" d="M22.93,50.7c.02.31.04.6.06.89.23,3.87.75,7.7,1.49,11.51.9,4.62,2.14,9.15,3.8,13.56,2.26,6.01,5.2,11.66,9.13,16.76.03.04.06.08.13.17-.13-.04-.2-.06-.27-.09-6.03-2.29-11.37-5.67-15.99-10.16-5.6-5.44-9.6-11.89-11.98-19.34-.93-2.9-1.55-5.86-1.88-8.88-.03-.28-.05-.56-.09-.84-.02-.17.03-.26.19-.33,2.25-1.09,4.59-1.88,7.03-2.41,2.68-.58,5.4-.82,8.14-.84.08,0,.16,0,.25,0Z"/>
</svg>