<?xml version="1.0" encoding="UTF-8"?>
<svg id="Layer_1" data-name="Layer 1" xmlns="http://www.w3.org/2000/svg" viewBox="0 0 100 100">
  <defs>
    <style>
      .cls-1 {
        stroke-width: 0px;
      }
    </style>
  </defs>
  <path class="cls-1" d="M48.61,5.06c2.16,0,4.32,0,6.48,0,1.24.17,2.48.33,3.71.53,12.52,2.01,22.58,8.16,30.16,18.27,5.2,6.94,8.08,14.81,8.79,23.48.56,6.85-.34,13.51-2.76,19.94-8.29,22.05-31.72,34.33-54.61,28.45-10.9-2.8-19.61-8.88-26.14-18.03-4.24-5.94-6.9-12.56-7.93-19.81-.18-1.3-.35-2.6-.52-3.89,0-2.04,0-4.08,0-6.12.13-1.03.25-2.07.4-3.1,1.77-11.77,7.18-21.52,16.32-29.14,6.21-5.18,13.33-8.49,21.32-9.87,1.58-.27,3.18-.47,4.77-.7ZM49.94,25.87c0-1.92.03-3.84-.02-5.76,0-.35-.23-.81-.51-1.02-3.49-2.58-7.01-5.13-10.54-7.66-.26-.19-.74-.28-1.04-.17-8.81,3.13-15.83,8.59-21.06,16.34-.19.29-.28.79-.17,1.12,1.19,3.89,2.41,7.77,3.66,11.63.11.33.47.7.79.81,3.56,1.22,7.14,2.4,10.73,3.55.33.11.85.04,1.13-.16,5.52-3.97,11.03-7.97,16.51-11.99.28-.2.5-.67.51-1.03.05-1.89.02-3.78.02-5.67ZM53.76,25.81c0,1.86.02,3.72-.01,5.57,0,.56.15.93.62,1.27,5.44,3.92,10.86,7.88,16.3,11.79.3.21.85.29,1.2.18,3.59-1.14,7.16-2.31,10.73-3.52.35-.12.76-.5.87-.84,1.25-3.83,2.46-7.68,3.64-11.54.1-.33.04-.84-.16-1.12-5.23-7.74-12.23-13.21-21.04-16.34-.3-.11-.79-.05-1.04.13-3.53,2.53-7.05,5.08-10.54,7.66-.3.22-.54.71-.55,1.09-.06,1.89-.03,3.78-.03,5.66ZM52.51,71.43c-3.48,0-6.96,0-10.43.01-.35,0-.81.1-1.04.33-2.91,2.86-5.79,5.74-8.65,8.64-.2.2-.34.59-.3.86.35,2.4.77,4.78,1.13,7.18.08.55.34.8.83,1.02,6.67,3.05,13.64,4.33,20.97,3.79,5.07-.38,9.9-1.63,14.52-3.73.46-.21.65-.47.72-.98.41-2.81.91-5.61,1.32-8.42.05-.36-.14-.88-.41-1.15-2.3-2.36-4.63-4.69-7-6.99-.32-.31-.87-.52-1.31-.53-3.45-.04-6.9-.02-10.34-.02ZM9.53,52.31c.14,1.52.24,2.71.37,3.9.84,7.19,3.43,13.71,7.65,19.58.19.27.59.5.92.55,3.27.55,6.56,1.03,9.82,1.62.84.15,1.31-.1,1.85-.65,2.41-2.46,4.85-4.9,7.3-7.31.41-.41.53-.74.34-1.31-2.12-6.44-4.21-12.89-6.29-19.34-.18-.57-.47-.88-1.05-1.07-3.49-1.13-6.98-2.29-10.46-3.46-.54-.18-.93-.12-1.39.22-2.71,1.97-5.43,3.93-8.18,5.85-.67.47-1.06.94-.89,1.44ZM94.1,52.61c.3-.82-.22-1.33-.95-1.83-2.7-1.88-5.38-3.81-8.04-5.75-.52-.38-.96-.44-1.56-.23-3.42,1.16-6.86,2.28-10.3,3.4-.5.16-.79.37-.96.91-2,6.23-4.03,12.45-6.07,18.67-.17.51-.08.81.29,1.17,2.41,2.38,4.82,4.76,7.18,7.19.51.53,1.01.63,1.66.52,3.6-.59,7.2-1.19,10.81-1.73.58-.09.88-.34,1.17-.79,4.2-6.51,6.43-13.65,6.78-21.52Z"/>
</svg>