<?xml version="1.0" encoding="UTF-8"?>
<svg id="Layer_1" data-name="Layer 1" xmlns="http://www.w3.org/2000/svg" viewBox="0 0 100 100">
  <defs>
    <style>
      .cls-1 {
        stroke-width: 0px;
      }
    </style>
  </defs>
  <path class="cls-1" d="M24.15,23.74c2.73,1.06,5.4,2.09,8.09,3.13-1.85,7.2-.88,13.91,3.34,20.03,3.36,4.86,7.97,8.03,13.73,9.37,11.55,2.69,23.17-3.74,27.12-14.93,3.99-11.29-1.1-23.79-11.79-29.04-11.15-5.47-25.31-1-30.99,10.89-2.68-1.04-5.36-2.07-8.15-3.15.6-1.12,1.13-2.22,1.77-3.26,5.07-8.22,12.32-13.44,21.85-15.08,10.03-1.73,18.98.89,26.62,7.65,5.5,4.87,8.89,11.01,10.2,18.23,3.11,17.27-7.72,33.32-24.06,37.24-14,3.36-28.73-3.36-35.46-16.16-2.72-5.17-3.96-10.67-3.75-16.49.1-2.77.56-5.49,1.38-8.14.03-.08.06-.16.1-.29Z"/>
  <path class="cls-1" d="M41.89,26.36c3.27-6.22,11.18-9.55,18.44-6.39,7.27,3.16,10.7,11.64,7.71,19-2.98,7.34-11.21,11-18.56,8.19-7.59-2.9-10.62-10.78-9.01-17.08,1.04.4,2.07.79,3.1,1.19,1.56.6,3.12,1.22,4.69,1.81.34.13.5.28.51.68.13,3.06,2.6,5.47,5.65,5.53,3.04.07,5.67-2.22,5.96-5.17.3-3.18-1.8-5.99-4.86-6.48-1.95-.31-3.64.25-5.05,1.63-.19.18-.33.33-.64.21-2.57-1.01-5.14-2-7.71-3-.08-.03-.15-.08-.23-.12Z"/>
  <path class="cls-1" d="M60.76,66.23c1.69-.47,3.35-.94,5.08-1.42.17.65.36,1.34.54,2.03,2.62,9.86,5.24,19.72,7.87,29.58.24.9,0,1.29-.91,1.54-.9.25-1.81.5-2.71.75-.81.22-1.24-.02-1.45-.83-1.29-4.82-2.57-9.65-3.86-14.47-1.49-5.59-2.98-11.18-4.47-16.78-.03-.12-.05-.25-.09-.4Z"/>
  <path class="cls-1" d="M43.29,64.81c1.72.48,3.38.95,5.08,1.43-.33,1.27-.67,2.54-1,3.8-2.45,9.25-4.91,18.5-7.36,27.75-.25.92-.64,1.15-1.54.91-.89-.24-1.77-.49-2.66-.74-.92-.25-1.14-.62-.89-1.55,1.81-6.87,3.63-13.73,5.45-20.6.93-3.5,1.85-7,2.78-10.51.05-.17.1-.34.14-.51Z"/>
  <path class="cls-1" d="M51.92,66.69h5.31v.58c0,10.07,0,20.13,0,30.2,0,1.01-.32,1.34-1.31,1.34-.98,0-1.95,0-2.93,0-.66,0-1.03-.37-1.06-1.03,0-.13,0-.25,0-.38,0-10.03,0-20.06,0-30.09v-.62Z"/>
  <path class="cls-1" d="M12.54,18.08c.21-.55.41-1.07.63-1.64.49.18.96.35,1.43.53,13.5,5.24,26.99,10.48,40.49,15.72.13.05.27.11.4.17.42.23.61.68.43,1.1-.18.43-.53.64-1,.55-.28-.05-.55-.17-.82-.27-13.67-5.3-27.33-10.61-40.99-15.92-.18-.07-.36-.16-.56-.24Z"/>
  <path class="cls-1" d="M7.71,20.83c1.15-.65,2.3-1.31,3.47-1.95.1-.06.28-.04.39,0,3.04,1.17,6.07,2.35,9.23,3.57-.39.22-.69.39-.99.56-.82.45-1.64.92-2.46,1.36-.14.07-.35.12-.49.07-3.04-1.16-6.08-2.34-9.12-3.52,0,0,0-.02-.03-.08Z"/>
  <path class="cls-1" d="M22.1,18.74c-1.46-.57-2.88-1.12-4.3-1.68-1.53-.59-3.06-1.19-4.59-1.77-.33-.13-.53-.31-.64-.65-.37-1.17-.77-2.32-1.19-3.55.16.04.27.05.38.09,2.89,1.12,5.78,2.24,8.67,3.38.18.07.39.23.45.4.43,1.19.82,2.39,1.22,3.58.02.05,0,.1,0,.2Z"/>
</svg>