<?xml version="1.0" encoding="UTF-8"?>
<svg id="Layer_1" data-name="Layer 1" xmlns="http://www.w3.org/2000/svg" viewBox="0 0 100 100">
  <defs>
    <style>
      .cls-1 {
        stroke-width: 0px;
      }
    </style>
  </defs>
  <path class="cls-1" d="M76.51,42.95c-1.53,0-3.02.15-4.44.5l-5.67-15.25h1.85c2.91,0,5.66-1.07,7.75-3.1l1.96-1.88c.89-.86.91-2.27.05-3.16s-2.28-.9-3.17-.04l-1.96,1.86c-1.24,1.21-2.89,1.83-4.62,1.83h-5.08c-.74,0-1.42.41-1.84,1.01-.42.6-.52,1.4-.26,2.09l2.16,5.8s-.03.04-.04.04c0,0,0,.04-.01.04h-28.72l-3.88-6.53,4.21-1.46c1.04-.36,1.67-1.36,1.48-2.44-.18-1.08-1.12-1.83-2.21-1.83h-12.33c-1.73,0-3.13,1.35-3.13,3.08,0,2.68,2.17,4.82,4.85,4.82.54,0,1.07-.1,1.58-.28l1.23-.43,3.93,6.58-3.02,9.06c-.99-.2-2.01-.33-3.05-.36-5.26-.17-10.19,1.84-13.83,5.6-3.5,3.61-5.34,8.38-5.18,13.41.31,9.68,8.13,17.5,17.81,17.81.2,0,.4,0,.6,0,5.03,0,9.73-2.01,13.23-5.62,2.83-2.92,4.58-6.7,5.05-10.59h3.61c.78.6,1.78,1.09,2.88,1.09,2.45,0,4.45-1.99,4.45-4.44,0-.8-.21-1.54-.58-2.19l12.58-21.34,3.16,8.47c-5.82,3.1-9.79,9.23-9.79,16.26,0,10.16,8.26,18.42,18.42,18.42s18.42-8.26,18.42-18.42-8.26-18.42-18.42-18.42ZM59.23,37.18l-10.95,18.58s0-.02-.01-.02c-.01,0-.03.03-.04.03l-11.11-18.59h22.12ZM33.2,39.28l11.19,18.71c-.18.33-.33.74-.42,1.04h-2.19c-.78-6.28-4.81-11.71-10.37-14.36l1.8-5.38ZM27.35,59.03c-.15-.3-.32-.46-.52-.67l2.65-7.97c3.21,1.77,5.55,5.05,6.23,8.64h-8.37ZM32.42,69.94c-2.46,2.54-5.78,3.9-9.34,3.79-6.53-.21-11.81-5.48-12.02-12.01-.11-3.4,1.13-6.62,3.5-9.06,2.36-2.44,5.54-3.78,8.93-3.78.14,0,.27,0,.41,0,.45.01.89.06,1.33.12l-2.68,8.05c-1.97.46-3.44,2.22-3.44,4.33,0,2.45,2,4.43,4.45,4.43,1.66,0,3.11-.79,3.87-2.29h8.29c-.43,2.39-1.56,4.63-3.3,6.42ZM76.51,73.81c-6.86,0-12.43-5.58-12.43-12.43,0-4.47,2.37-8.39,5.92-10.58l4.22,11.31c.34.9,1.19,1.46,2.1,1.46.26,0,.53-.05.78-.14,1.16-.43,1.75-1.73,1.32-2.89l-4.24-11.36c.76-.14,1.53-.22,2.33-.22,6.86,0,12.43,5.58,12.43,12.43s-5.58,12.43-12.43,12.43Z"/>
</svg>