<?xml version="1.0" encoding="UTF-8"?>
<svg id="Layer_1" data-name="Layer 1" xmlns="http://www.w3.org/2000/svg" viewBox="0 0 100 100">
  <defs>
    <style>
      .cls-1 {
        stroke-width: 0px;
      }
    </style>
  </defs>
  <path class="cls-1" d="M4,24.59c.06-.09.14-.18.18-.28,1.14-3.03,4.18-4.06,6.93-2.33,3.99,2.53,7.96,5.1,11.96,7.6.74.46,1.6.8,2.45.99,4.86,1.09,9.74,2.13,14.62,3.15.4.08.9,0,1.28-.16,1.32-.56,2.6-1.19,4-1.84,3.07,6.14,6.12,12.25,9.22,18.46-1.62.29-1.28,1.38-1.17,2.42.39,3.84.83,7.67,1.08,11.52.07,1.12-.36,2.29-.65,3.41-1.54,5.92-3.11,11.84-4.66,17.76-.53,2.01-1.73,3.34-3.82,3.67-1.78.28-3.24-.4-4.29-1.85-.78-1.07-1.04-2.28-.71-3.57,1.65-6.33,3.3-12.65,4.95-18.97.1-.4.16-.83.12-1.23-.4-4.35-.83-8.69-1.26-13.04-.03-.26-.14-.52-.25-.76-.89-1.93-1.81-3.84-2.66-5.78-.26-.59-.67-.75-1.22-.86-6.13-1.3-12.27-2.61-18.39-3.95-.66-.14-1.32-.42-1.88-.78-4.43-2.79-8.82-5.64-13.25-8.42-1.26-.79-2.09-1.83-2.58-3.19,0-.66,0-1.32,0-1.98Z"/>
  <path class="cls-1" d="M70.35,42.85c-1.43.67-2.83,1.32-4.23,1.97-1.4.65-2.81,1.3-4.31,1.99-2.89-5.79-5.76-11.52-8.74-17.5,2.38.89,4.53,1.69,6.68,2.49l.07-.16c-2.63-1.77-5.25-3.54-7.89-5.28-.22-.14-.62-.1-.92-.03-4.12.98-8.24,1.98-12.36,2.97-2.38.57-4.36-.57-4.9-2.82-.48-2.02.83-4,3.05-4.54,4.73-1.16,9.46-2.28,14.18-3.46,1.46-.36,2.74-.14,3.99.72,2.8,1.94,5.65,3.82,8.47,5.72.19.13.39.25.71.26-.43-.48-.86-.96-1.3-1.45,1.71-1.19,4.88-.59,6.4,1.38.34.44.63.95.87,1.46,1.37,2.92,2.7,5.86,4.11,8.76.36.74.95,1.37,1.47,2.02.95,1.2,1.95,2.35,2.87,3.57.38.5.71.55,1.29.4,3.73-.96,7.47-1.88,11.2-2.81,2.27-.56,4.25.55,4.83,2.7.54,2.03-.68,4.06-2.89,4.63-4.8,1.23-9.6,2.43-14.42,3.6-1.55.38-2.9-.09-3.93-1.34-1.42-1.73-2.83-3.48-4.28-5.27Z"/>
  <path class="cls-1" d="M82.34,35.38c-4.52-.03-8.1-3.63-8.08-8.11.03-4.39,3.74-8.06,8.12-8.01,4.48.05,8.05,3.69,8.02,8.19-.03,4.38-3.66,7.96-8.06,7.93Z"/>
  <path class="cls-1" d="M60.19,53.93c0,1.32.03,2.41,0,3.5-.03.99-.6,1.73-1.45,1.94-.87.21-1.64-.04-2.11-.8-.23-.38-.33-.9-.34-1.35-.03-2.42.01-4.85-.03-7.27-.01-.6-.15-1.25-.41-1.79-2.75-5.57-5.54-11.12-8.31-16.67-.17-.34-.34-.7-.42-1.08-.2-.91.25-1.78,1.06-2.16.85-.4,1.84-.16,2.39.63.29.41.49.89.72,1.34,2.75,5.5,5.42,11.06,8.3,16.49.92,1.74,2.44,3.16,3.69,4.72.3.37.63.72.91,1.11.62.88.47,2-.33,2.66-.78.65-1.84.61-2.61-.12-.31-.3-.59-.64-1.04-1.15Z"/>
</svg>